<?xml version="1.0" encoding="UTF-8"?>
<!DOCTYPE svg PUBLIC "-//W3C//DTD SVG 1.1//EN" "http://www.w3.org/Graphics/SVG/1.1/DTD/svg11.dtd">
<svg xmlns="http://www.w3.org/2000/svg" version="1.1" width="1066px" height="1041px" style="shape-rendering:geometricPrecision; text-rendering:geometricPrecision; image-rendering:optimizeQuality; fill-rule:evenodd; clip-rule:evenodd" xmlns:xlink="http://www.w3.org/1999/xlink">
<g><path style="opacity:1" fill="#97c8dd" d="M 353.5,59.5 C 359.158,58.6794 360.825,60.846 358.5,66C 353.262,66.5941 351.595,64.4274 353.5,59.5 Z"/></g>
<g><path style="opacity:1" fill="#8ec3db" d="M 412.5,94.5 C 413.659,85.9947 409.993,81.9947 401.5,82.5C 402.091,81.8485 402.757,81.1818 403.5,80.5C 402.372,70.1941 407.038,66.0275 417.5,68C 424.099,72.5891 425.099,78.2558 420.5,85C 418.35,86.4114 416.016,87.2447 413.5,87.5C 413.802,90.0593 413.468,92.3926 412.5,94.5 Z"/></g>
<g><path style="opacity:1" fill="#4897c0" d="M 349.5,76.5 C 353.366,77.0054 354.699,79.0054 353.5,82.5C 347.344,83.9463 346.011,81.9463 349.5,76.5 Z"/></g>
<g><path style="opacity:1" fill="#8ec3da" d="M 335.5,107.5 C 330.538,99.5664 323.538,97.0664 314.5,100C 311.642,101.694 309.309,103.861 307.5,106.5C 303.201,92.4281 308.201,83.7615 322.5,80.5C 334.55,82.3812 340.05,89.3812 339,101.5C 338.576,104.025 337.41,106.025 335.5,107.5 Z"/></g>
<g><path style="opacity:1" fill="#278ab8" d="M 401.5,82.5 C 409.993,81.9947 413.659,85.9947 412.5,94.5C 410.234,99.7965 406.234,101.63 400.5,100C 394.103,96.5594 392.603,91.7261 396,85.5C 397.264,83.393 399.097,82.393 401.5,82.5 Z"/></g>
<g><path style="opacity:1" fill="#99c9de" d="M 377.5,96.5 C 381.533,96.6914 383.033,98.6914 382,102.5C 378.749,105.46 376.582,104.793 375.5,100.5C 375.752,98.9271 376.418,97.5938 377.5,96.5 Z"/></g>
<g><path style="opacity:1" fill="#2689b8" d="M 335.5,107.5 C 338.96,119.901 334.293,127.235 321.5,129.5C 307.87,127.234 303.203,119.567 307.5,106.5C 309.309,103.861 311.642,101.694 314.5,100C 323.538,97.0664 330.538,99.5664 335.5,107.5 Z"/></g>
<g><path style="opacity:1" fill="#97c8dd" d="M 220.5,103.5 C 225.651,103.654 226.984,105.82 224.5,110C 218.681,110.526 217.348,108.359 220.5,103.5 Z"/></g>
<g><path style="opacity:1" fill="#82bbd5" d="M 726.5,132.5 C 643.932,98.3544 559.599,93.3544 473.5,117.5C 473.5,116.833 473.167,116.5 472.5,116.5C 551.507,93.5312 629.84,96.0312 707.5,124C 714.16,126.334 720.493,129.168 726.5,132.5 Z"/></g>
<g><path style="opacity:1" fill="#4d9ac2" d="M 371.5,110.5 C 376.241,110.161 377.574,112.161 375.5,116.5C 369.787,117.452 368.454,115.452 371.5,110.5 Z"/></g>
<g><path style="opacity:1" fill="#95c7dd" d="M 285.5,115.5 C 291.148,115.311 292.482,117.478 289.5,122C 284.57,122.427 283.237,120.26 285.5,115.5 Z"/></g>
<g><path style="opacity:1" fill="#8cc2da" d="M 265.5,143.5 C 244.954,134.602 233.954,141.269 232.5,163.5C 231.835,161.631 231.169,159.631 230.5,157.5C 225.541,154.584 222.875,150.25 222.5,144.5C 223.315,139.206 224.982,134.206 227.5,129.5C 231.411,131.268 233.078,129.935 232.5,125.5C 238.299,121.251 244.632,120.418 251.5,123C 257.56,124.934 262.394,128.434 266,133.5C 266.747,136.924 266.58,140.257 265.5,143.5 Z"/></g>
<g><path style="opacity:1" fill="#3a92bd" d="M 232.5,125.5 C 233.078,129.935 231.411,131.268 227.5,129.5C 225.399,125.169 226.733,123.336 231.5,124C 232.056,124.383 232.389,124.883 232.5,125.5 Z"/></g>
<g><path style="opacity:1" fill="#56a0c5" d="M 472.5,116.5 C 473.167,116.5 473.5,116.833 473.5,117.5C 456.526,123.046 439.86,129.38 423.5,136.5C 422.791,135.596 421.791,135.263 420.5,135.5C 437.142,127.523 454.475,121.19 472.5,116.5 Z"/></g>
<g><path style="opacity:1" fill="#4d9ac2" d="M 288.5,131.5 C 293.328,131.385 294.661,133.552 292.5,138C 286.738,138.418 285.404,136.251 288.5,131.5 Z"/></g>
<g><path style="opacity:1" fill="#8fc3db" d="M 371.5,158.5 C 366.978,147.072 358.978,143.572 347.5,148C 345.266,150.063 343.266,152.229 341.5,154.5C 339.913,142.402 345.246,135.402 357.5,133.5C 372.503,136.526 377.169,144.859 371.5,158.5 Z"/></g>
<g><path style="opacity:1" fill="#a4cee1" d="M 726.5,132.5 C 729.912,133.042 732.912,134.375 735.5,136.5C 732.088,135.958 729.088,134.625 726.5,132.5 Z"/></g>
<g><path style="opacity:1" fill="#2c8bb9" d="M 420.5,135.5 C 421.791,135.263 422.791,135.596 423.5,136.5C 352.51,171.322 297.51,223.155 258.5,292C 265.456,300.663 265.123,308.996 257.5,317C 253.47,319.854 249.137,320.687 244.5,319.5C 232.211,345.867 223.211,373.367 217.5,402C 237.234,415.778 240.734,432.945 228,453.5C 223.621,458.718 218.121,462.052 211.5,463.5C 210.49,498.419 214.49,532.753 223.5,566.5C 230.091,573.333 234.924,581.333 238,590.5C 239.202,594.793 238.035,598.293 234.5,601C 278.988,710.488 357.321,783.822 469.5,821C 590.747,854.852 701.747,834.519 802.5,760C 876.244,700.386 921.077,623.553 937,529.5C 939.137,511.797 941.47,494.131 944,476.5C 948.224,469.634 951.891,469.967 955,477.5C 956.956,505.568 954.289,533.235 947,560.5C 929.645,627.91 896.812,686.243 848.5,735.5C 842.219,740.148 836.552,745.481 831.5,751.5C 729.475,837.911 613.142,866.244 482.5,836.5C 475.895,833.187 468.895,830.854 461.5,829.5C 436.343,820.423 412.01,809.423 388.5,796.5C 376.348,787.922 364.014,779.589 351.5,771.5C 340.506,762.173 329.506,752.84 318.5,743.5C 314.227,737.558 309.227,732.224 303.5,727.5C 270.854,691.246 245.521,650.246 227.5,604.5C 220.837,608.93 213.837,609.93 206.5,607.5C 201.547,601.594 198.213,594.927 196.5,587.5C 197.27,576.222 203.27,569.389 214.5,567C 215.022,566.439 215.355,565.772 215.5,565C 207.055,532.446 203.388,499.446 204.5,466C 202.564,465.187 200.564,464.687 198.5,464.5C 175.649,458.487 166.816,443.82 172,420.5C 175.467,412.511 180.967,406.511 188.5,402.5C 190.767,401.577 193.1,400.744 195.5,400C 200.869,399.607 206.035,399.441 211,399.5C 216.938,370.855 225.771,343.188 237.5,316.5C 229.582,305.731 231.249,296.898 242.5,290C 245.146,289.503 247.813,289.336 250.5,289.5C 252.074,289.063 253.241,288.063 254,286.5C 278.978,243.179 311.478,206.346 351.5,176C 342.072,171.646 338.739,164.479 341.5,154.5C 343.266,152.229 345.266,150.063 347.5,148C 358.978,143.572 366.978,147.072 371.5,158.5C 371.281,159.675 371.614,160.675 372.5,161.5C 387.777,151.571 403.777,142.904 420.5,135.5 Z"/></g>
<g><path style="opacity:1" fill="#8ac2d9" d="M 735.5,136.5 C 736.492,136.328 737.158,136.662 737.5,137.5C 736.508,137.672 735.842,137.338 735.5,136.5 Z"/></g>
<g><path style="opacity:1" fill="#1f88b7" d="M 265.5,143.5 C 271.263,147.236 273.096,152.569 271,159.5C 268.405,166.526 264.905,173.026 260.5,179C 258.899,179.273 257.399,179.773 256,180.5C 247.652,178.326 240.318,174.326 234,168.5C 232.991,166.975 232.491,165.308 232.5,163.5C 233.954,141.269 244.954,134.602 265.5,143.5 Z"/></g>
<g><path style="opacity:1" fill="#acd2e4" d="M 737.5,137.5 C 743.419,139.126 748.753,141.793 753.5,145.5C 747.849,143.341 742.516,140.674 737.5,137.5 Z"/></g>
<g><path style="opacity:1" fill="#96c7dd" d="M 753.5,145.5 C 754.492,145.328 755.158,145.662 755.5,146.5C 754.508,146.672 753.842,146.338 753.5,145.5 Z"/></g>
<g><path style="opacity:1" fill="#aed4e5" d="M 755.5,146.5 C 758.331,147.079 760.664,148.412 762.5,150.5C 759.669,149.921 757.336,148.588 755.5,146.5 Z"/></g>
<g><path style="opacity:1" fill="#9fcce0" d="M 762.5,150.5 C 763.492,150.328 764.158,150.662 764.5,151.5C 763.508,151.672 762.842,151.338 762.5,150.5 Z"/></g>
<g><path style="opacity:1" fill="#aed4e5" d="M 764.5,151.5 C 766.027,151.427 767.027,152.094 767.5,153.5C 765.973,153.573 764.973,152.906 764.5,151.5 Z"/></g>
<g><path style="opacity:1" fill="#add3e4" d="M 767.5,153.5 C 769.674,153.75 771.341,154.75 772.5,156.5C 770.326,156.25 768.659,155.25 767.5,153.5 Z"/></g>
<g><path style="opacity:1" fill="#add4e4" d="M 772.5,156.5 C 774.027,156.427 775.027,157.094 775.5,158.5C 773.973,158.573 772.973,157.906 772.5,156.5 Z"/></g>
<g><path style="opacity:1" fill="#8dc3da" d="M 300.5,172.5 C 290.707,169.273 286.04,172.94 286.5,183.5C 285.691,181.708 285.191,179.708 285,177.5C 279.225,171.812 279.059,165.978 284.5,160C 293.422,155.841 299.089,158.674 301.5,168.5C 300.754,169.736 300.421,171.07 300.5,172.5 Z"/></g>
<g><path style="opacity:1" fill="#a3cfe1" d="M 775.5,158.5 C 776.492,158.328 777.158,158.662 777.5,159.5C 776.508,159.672 775.842,159.338 775.5,158.5 Z"/></g>
<g><path style="opacity:1" fill="#b2d6e5" d="M 777.5,159.5 C 779.027,159.427 780.027,160.094 780.5,161.5C 778.973,161.573 777.973,160.906 777.5,159.5 Z"/></g>
<g><path style="opacity:1" fill="#add4e5" d="M 780.5,161.5 C 782.027,161.427 783.027,162.094 783.5,163.5C 781.973,163.573 780.973,162.906 780.5,161.5 Z"/></g>
<g><path style="opacity:1" fill="#b1d6e5" d="M 783.5,163.5 C 785.027,163.427 786.027,164.094 786.5,165.5C 784.973,165.573 783.973,164.906 783.5,163.5 Z"/></g>
<g><path style="opacity:1" fill="#b3d7e6" d="M 786.5,165.5 C 788.027,165.427 789.027,166.094 789.5,167.5C 787.973,167.573 786.973,166.906 786.5,165.5 Z"/></g>
<g><path style="opacity:1" fill="#b6d8e7" d="M 789.5,167.5 C 791.027,167.427 792.027,168.094 792.5,169.5C 790.973,169.573 789.973,168.906 789.5,167.5 Z"/></g>
<g><path style="opacity:1" fill="#93c7dc" d="M 792.5,169.5 C 793.167,169.5 793.5,169.833 793.5,170.5C 793.167,170.167 792.833,169.833 792.5,169.5 Z"/></g>
<g><path style="opacity:1" fill="#9dcbdf" d="M 314.5,169.5 C 320.532,171.544 320.865,174.21 315.5,177.5C 310.606,175.282 310.272,172.615 314.5,169.5 Z"/></g>
<g><path style="opacity:1" fill="#b4d7e7" d="M 793.5,170.5 C 795.027,170.427 796.027,171.094 796.5,172.5C 794.973,172.573 793.973,171.906 793.5,170.5 Z"/></g>
<g><path style="opacity:1" fill="#288ab9" d="M 300.5,172.5 C 304.24,175.599 305.407,179.599 304,184.5C 299.771,190.637 294.605,191.637 288.5,187.5C 287.295,186.423 286.628,185.09 286.5,183.5C 286.04,172.94 290.707,169.273 300.5,172.5 Z"/></g>
<g><path style="opacity:1" fill="#badae9" d="M 796.5,172.5 C 798.027,172.427 799.027,173.094 799.5,174.5C 797.973,174.573 796.973,173.906 796.5,172.5 Z"/></g>
<g><path style="opacity:1" fill="#95c7dc" d="M 799.5,174.5 C 800.167,174.5 800.5,174.833 800.5,175.5C 800.167,175.167 799.833,174.833 799.5,174.5 Z"/></g>
<g><path style="opacity:1" fill="#bddce9" d="M 800.5,175.5 C 802.027,175.427 803.027,176.094 803.5,177.5C 801.973,177.573 800.973,176.906 800.5,175.5 Z"/></g>
<g><path style="opacity:1" fill="#9bcbdf" d="M 803.5,177.5 C 804.167,177.5 804.5,177.833 804.5,178.5C 804.167,178.167 803.833,177.833 803.5,177.5 Z"/></g>
<g><path style="opacity:1" fill="#99c9dd" d="M 804.5,178.5 C 805.167,178.5 805.5,178.833 805.5,179.5C 805.167,179.167 804.833,178.833 804.5,178.5 Z"/></g>
<g><path style="opacity:1" fill="#bfddea" d="M 805.5,179.5 C 807.027,179.427 808.027,180.094 808.5,181.5C 806.973,181.573 805.973,180.906 805.5,179.5 Z"/></g>
<g><path style="opacity:1" fill="#4898c1" d="M 316.5,180.5 C 321.241,180.161 322.574,182.161 320.5,186.5C 314.787,187.452 313.454,185.452 316.5,180.5 Z"/></g>
<g><path style="opacity:1" fill="#9dccdf" d="M 808.5,181.5 C 809.167,181.5 809.5,181.833 809.5,182.5C 809.167,182.167 808.833,181.833 808.5,181.5 Z"/></g>
<g><path style="opacity:1" fill="#9acade" d="M 809.5,182.5 C 810.167,182.5 810.5,182.833 810.5,183.5C 810.167,183.167 809.833,182.833 809.5,182.5 Z"/></g>
<g><path style="opacity:1" fill="#c1deea" d="M 810.5,183.5 C 812.027,183.427 813.027,184.094 813.5,185.5C 811.973,185.573 810.973,184.906 810.5,183.5 Z"/></g>
<g><path style="opacity:1" fill="#9fcde0" d="M 813.5,185.5 C 814.167,185.5 814.5,185.833 814.5,186.5C 814.167,186.167 813.833,185.833 813.5,185.5 Z"/></g>
<g><path style="opacity:1" fill="#9dccdf" d="M 814.5,186.5 C 815.167,186.5 815.5,186.833 815.5,187.5C 815.167,187.167 814.833,186.833 814.5,186.5 Z"/></g>
<g><path style="opacity:1" fill="#c3dfeb" d="M 815.5,187.5 C 817.027,187.427 818.027,188.094 818.5,189.5C 816.973,189.573 815.973,188.906 815.5,187.5 Z"/></g>
<g><path style="opacity:1" fill="#a6d1e2" d="M 818.5,189.5 C 819.167,189.5 819.5,189.833 819.5,190.5C 819.167,190.167 818.833,189.833 818.5,189.5 Z"/></g>
<g><path style="opacity:1" fill="#9ecddf" d="M 819.5,190.5 C 820.167,190.5 820.5,190.833 820.5,191.5C 820.167,191.167 819.833,190.833 819.5,190.5 Z"/></g>
<g><path style="opacity:1" fill="#9fcde0" d="M 820.5,191.5 C 821.167,191.5 821.5,191.833 821.5,192.5C 821.167,192.167 820.833,191.833 820.5,191.5 Z"/></g>
<g><path style="opacity:1" fill="#a7d1e2" d="M 821.5,192.5 C 822.167,192.5 822.5,192.833 822.5,193.5C 822.167,193.167 821.833,192.833 821.5,192.5 Z"/></g>
<g><path style="opacity:1" fill="#8dc3da" d="M 263.5,207.5 C 255.504,205.284 247.504,205.117 239.5,207C 237.683,208.8 236.516,210.966 236,213.5C 235.5,220.158 235.334,226.825 235.5,233.5C 228.758,233.38 224.591,230.046 223,223.5C 222.567,216.088 223.234,208.755 225,201.5C 226.199,195.801 229.699,192.801 235.5,192.5C 241.906,193.259 248.239,194.426 254.5,196C 259.208,198.537 262.208,202.37 263.5,207.5 Z"/></g>
<g><path style="opacity:1" fill="#c7e1ed" d="M 822.5,193.5 C 824.404,193.738 825.738,194.738 826.5,196.5C 824.596,196.262 823.262,195.262 822.5,193.5 Z"/></g>
<g><path style="opacity:1" fill="#8fc4db" d="M 201.5,209.5 C 199.167,211.167 197.167,213.167 195.5,215.5C 193.128,215.468 190.462,215.301 187.5,215C 180.752,211.657 178.919,206.49 182,199.5C 189.612,192.222 195.946,193.222 201,202.5C 201.126,205.063 201.293,207.396 201.5,209.5 Z"/></g>
<g><path style="opacity:1" fill="#add5e4" d="M 826.5,196.5 C 827.167,196.5 827.5,196.833 827.5,197.5C 827.167,197.167 826.833,196.833 826.5,196.5 Z"/></g>
<g><path style="opacity:1" fill="#a8d2e3" d="M 827.5,197.5 C 828.167,197.5 828.5,197.833 828.5,198.5C 828.167,198.167 827.833,197.833 827.5,197.5 Z"/></g>
<g><path style="opacity:1" fill="#a3d0e1" d="M 828.5,198.5 C 829.167,198.5 829.5,198.833 829.5,199.5C 829.167,199.167 828.833,198.833 828.5,198.5 Z"/></g>
<g><path style="opacity:1" fill="#a3d0e1" d="M 829.5,199.5 C 830.167,199.5 830.5,199.833 830.5,200.5C 830.167,200.167 829.833,199.833 829.5,199.5 Z"/></g>
<g><path style="opacity:1" fill="#a5d0e2" d="M 830.5,200.5 C 831.167,200.5 831.5,200.833 831.5,201.5C 831.167,201.167 830.833,200.833 830.5,200.5 Z"/></g>
<g><path style="opacity:1" fill="#aad3e3" d="M 831.5,201.5 C 832.167,201.5 832.5,201.833 832.5,202.5C 832.167,202.167 831.833,201.833 831.5,201.5 Z"/></g>
<g><path style="opacity:1" fill="#b0d6e5" d="M 832.5,202.5 C 833.167,202.5 833.5,202.833 833.5,203.5C 833.167,203.167 832.833,202.833 832.5,202.5 Z"/></g>
<g><path style="opacity:1" fill="#b7dae7" d="M 833.5,203.5 C 834.167,203.5 834.5,203.833 834.5,204.5C 834.167,204.167 833.833,203.833 833.5,203.5 Z"/></g>
<g><path style="opacity:1" fill="#cee5ef" d="M 834.5,204.5 C 838.5,206.5 841.5,209.5 843.5,213.5C 840.167,210.833 837.167,207.833 834.5,204.5 Z"/></g>
<g><path style="opacity:1" fill="#96c7dd" d="M 163.5,205.5 C 169.555,204.942 170.888,207.109 167.5,212C 166.101,212.595 164.768,212.428 163.5,211.5C 162.306,209.484 162.306,207.484 163.5,205.5 Z"/></g>
<g><path style="opacity:1" fill="#2288b7" d="M 263.5,207.5 C 269.807,210.843 272.807,216.176 272.5,223.5C 272.098,236.568 265.432,243.235 252.5,243.5C 246.538,244.056 241.371,242.389 237,238.5C 235.991,236.975 235.491,235.308 235.5,233.5C 235.334,226.825 235.5,220.158 236,213.5C 236.516,210.966 237.683,208.8 239.5,207C 247.504,205.117 255.504,205.284 263.5,207.5 Z"/></g>
<g><path style="opacity:1" fill="#2f8dba" d="M 195.5,215.5 C 197.167,213.167 199.167,211.167 201.5,209.5C 209.08,207.791 213.414,210.791 214.5,218.5C 214.282,224.553 211.115,227.887 205,228.5C 197.45,227.407 194.283,223.074 195.5,215.5 Z"/></g>
<g><path style="opacity:1" fill="#c1dfeb" d="M 843.5,213.5 C 844.167,213.5 844.5,213.833 844.5,214.5C 844.167,214.167 843.833,213.833 843.5,213.5 Z"/></g>
<g><path style="opacity:1" fill="#c1dfea" d="M 844.5,214.5 C 845.167,214.5 845.5,214.833 845.5,215.5C 845.167,215.167 844.833,214.833 844.5,214.5 Z"/></g>
<g><path style="opacity:1" fill="#bfdeea" d="M 845.5,215.5 C 846.167,215.5 846.5,215.833 846.5,216.5C 846.167,216.167 845.833,215.833 845.5,215.5 Z"/></g>
<g><path style="opacity:1" fill="#bedde9" d="M 846.5,216.5 C 847.167,216.5 847.5,216.833 847.5,217.5C 847.167,217.167 846.833,216.833 846.5,216.5 Z"/></g>
<g><path style="opacity:1" fill="#bcdce9" d="M 847.5,217.5 C 848.167,217.5 848.5,217.833 848.5,218.5C 848.167,218.167 847.833,217.833 847.5,217.5 Z"/></g>
<g><path style="opacity:1" fill="#b9dbe8" d="M 848.5,218.5 C 849.167,218.5 849.5,218.833 849.5,219.5C 849.167,219.167 848.833,218.833 848.5,218.5 Z"/></g>
<g><path style="opacity:1" fill="#b4d8e6" d="M 849.5,219.5 C 850.167,219.5 850.5,219.833 850.5,220.5C 850.167,220.167 849.833,219.833 849.5,219.5 Z"/></g>
<g><path style="opacity:1" fill="#4b99c2" d="M 180.5,219.5 C 185.328,219.385 186.661,221.552 184.5,226C 178.738,226.418 177.404,224.251 180.5,219.5 Z"/></g>
<g><path style="opacity:1" fill="#b0d6e5" d="M 850.5,220.5 C 851.167,220.5 851.5,220.833 851.5,221.5C 851.167,221.167 850.833,220.833 850.5,220.5 Z"/></g>
<g><path style="opacity:1" fill="#b2d7e6" d="M 851.5,221.5 C 852.167,221.5 852.5,221.833 852.5,222.5C 852.167,222.167 851.833,221.833 851.5,221.5 Z"/></g>
<g><path style="opacity:1" fill="#b7dae7" d="M 852.5,222.5 C 853.167,222.5 853.5,222.833 853.5,223.5C 853.167,223.167 852.833,222.833 852.5,222.5 Z"/></g>
<g><path style="opacity:1" fill="#bfdeea" d="M 853.5,223.5 C 854.167,223.5 854.5,223.833 854.5,224.5C 854.167,224.167 853.833,223.833 853.5,223.5 Z"/></g>
<g><path style="opacity:1" fill="#c7e2ec" d="M 854.5,224.5 C 855.167,224.5 855.5,224.833 855.5,225.5C 855.167,225.167 854.833,224.833 854.5,224.5 Z"/></g>
<g><path style="opacity:1" fill="#d3e8f1" d="M 855.5,225.5 C 856.906,225.973 857.573,226.973 857.5,228.5C 856.094,228.027 855.427,227.027 855.5,225.5 Z"/></g>
<g><path style="opacity:1" fill="#bfdeea" d="M 857.5,228.5 C 858.167,228.5 858.5,228.833 858.5,229.5C 858.167,229.167 857.833,228.833 857.5,228.5 Z"/></g>
<g><path style="opacity:1" fill="#b7dae7" d="M 858.5,229.5 C 859.167,229.5 859.5,229.833 859.5,230.5C 859.167,230.167 858.833,229.833 858.5,229.5 Z"/></g>
<g><path style="opacity:1" fill="#b9dbe8" d="M 859.5,230.5 C 860.167,230.5 860.5,230.833 860.5,231.5C 860.167,231.167 859.833,230.833 859.5,230.5 Z"/></g>
<g><path style="opacity:1" fill="#8cc2da" d="M 179.5,244.5 C 159.954,242.183 146.787,250.183 140,268.5C 137.806,281.413 141.306,292.413 150.5,301.5C 134.45,300.623 123.617,292.623 118,277.5C 113.565,249.926 125.231,234.26 153,230.5C 163.95,231.389 172.783,236.056 179.5,244.5 Z"/></g>
<g><path style="opacity:1" fill="#c5e1ec" d="M 860.5,231.5 C 861.167,231.5 861.5,231.833 861.5,232.5C 861.167,232.167 860.833,231.833 860.5,231.5 Z"/></g>
<g><path style="opacity:1" fill="#d5e9f1" d="M 861.5,232.5 C 862.338,232.842 862.672,233.508 862.5,234.5C 861.662,234.158 861.328,233.492 861.5,232.5 Z"/></g>
<g><path style="opacity:1" fill="#cbe4ed" d="M 862.5,234.5 C 863.167,234.5 863.5,234.833 863.5,235.5C 863.167,235.167 862.833,234.833 862.5,234.5 Z"/></g>
<g><path style="opacity:1" fill="#bfdeea" d="M 863.5,235.5 C 864.167,235.5 864.5,235.833 864.5,236.5C 864.167,236.167 863.833,235.833 863.5,235.5 Z"/></g>
<g><path style="opacity:1" fill="#98c8de" d="M 275.5,235.5 C 280.594,237.872 280.761,240.539 276,243.5C 271.578,241.105 271.412,238.438 275.5,235.5 Z"/></g>
<g><path style="opacity:1" fill="#badbe8" d="M 864.5,236.5 C 865.167,236.5 865.5,236.833 865.5,237.5C 865.167,237.167 864.833,236.833 864.5,236.5 Z"/></g>
<g><path style="opacity:1" fill="#c1dfeb" d="M 865.5,237.5 C 866.167,237.5 866.5,237.833 866.5,238.5C 866.167,238.167 865.833,237.833 865.5,237.5 Z"/></g>
<g><path style="opacity:1" fill="#d6e9f1" d="M 866.5,238.5 C 867.338,238.842 867.672,239.508 867.5,240.5C 866.662,240.158 866.328,239.492 866.5,238.5 Z"/></g>
<g><path style="opacity:1" fill="#c5e1ec" d="M 867.5,240.5 C 868.167,240.5 868.5,240.833 868.5,241.5C 868.167,241.167 867.833,240.833 867.5,240.5 Z"/></g>
<g><path style="opacity:1" fill="#bedde9" d="M 868.5,241.5 C 869.167,241.5 869.5,241.833 869.5,242.5C 869.167,242.167 868.833,241.833 868.5,241.5 Z"/></g>
<g><path style="opacity:1" fill="#c8e3ed" d="M 869.5,242.5 C 870.167,242.5 870.5,242.833 870.5,243.5C 870.167,243.167 869.833,242.833 869.5,242.5 Z"/></g>
<g><path style="opacity:1" fill="#1d87b6" d="M 179.5,244.5 C 198.03,250.884 206.196,263.884 204,283.5C 198.318,302.602 185.484,311.102 165.5,309C 159.667,307.906 154.667,305.406 150.5,301.5C 141.306,292.413 137.806,281.413 140,268.5C 146.787,250.183 159.954,242.183 179.5,244.5 Z"/></g>
<g><path style="opacity:1" fill="#d5e9f1" d="M 870.5,243.5 C 871.338,243.842 871.672,244.508 871.5,245.5C 870.662,245.158 870.328,244.492 870.5,243.5 Z"/></g>
<g><path style="opacity:1" fill="#c3e0eb" d="M 871.5,245.5 C 872.167,245.5 872.5,245.833 872.5,246.5C 872.167,246.167 871.833,245.833 871.5,245.5 Z"/></g>
<g><path style="opacity:1" fill="#c3e0eb" d="M 872.5,246.5 C 873.167,246.5 873.5,246.833 873.5,247.5C 873.167,247.167 872.833,246.833 872.5,246.5 Z"/></g>
<g><path style="opacity:1" fill="#95c7dd" d="M 207.5,247.5 C 213.158,246.679 214.825,248.846 212.5,254C 207.279,254.61 205.612,252.443 207.5,247.5 Z"/></g>
<g><path style="opacity:1" fill="#d1e7ef" d="M 873.5,247.5 C 874.833,248.167 874.833,248.167 873.5,247.5 Z"/></g>
<g><path style="opacity:1" fill="#cbe4ed" d="M 875.5,250.5 C 874.833,249.167 874.833,249.167 875.5,250.5 Z"/></g>
<g><path style="opacity:1" fill="#c6e2ec" d="M 875.5,250.5 C 876.167,250.5 876.5,250.833 876.5,251.5C 876.167,251.167 875.833,250.833 875.5,250.5 Z"/></g>
<g><path style="opacity:1" fill="#d9ebf2" d="M 876.5,251.5 C 877.338,251.842 877.672,252.508 877.5,253.5C 876.662,253.158 876.328,252.492 876.5,251.5 Z"/></g>
<g><path style="opacity:1" fill="#cae3ed" d="M 877.5,253.5 C 878.167,253.5 878.5,253.833 878.5,254.5C 878.167,254.167 877.833,253.833 877.5,253.5 Z"/></g>
<g><path style="opacity:1" fill="#cae3ed" d="M 878.5,254.5 C 879.833,255.167 879.833,255.167 878.5,254.5 Z"/></g>
<g><path style="opacity:1" fill="#4898c1" d="M 222.5,256.5 C 228.148,256.311 229.482,258.478 226.5,263C 221.791,263.082 220.458,260.915 222.5,256.5 Z"/></g>
<g><path style="opacity:1" fill="#d4e9f0" d="M 880.5,257.5 C 879.833,256.167 879.833,256.167 880.5,257.5 Z"/></g>
<g><path style="opacity:1" fill="#c9e3ed" d="M 880.5,257.5 C 881.167,257.5 881.5,257.833 881.5,258.5C 881.167,258.167 880.833,257.833 880.5,257.5 Z"/></g>
<g><path style="opacity:1" fill="#d5e9f1" d="M 881.5,258.5 C 882.833,259.167 882.833,259.167 881.5,258.5 Z"/></g>
<g><path style="opacity:1" fill="#cce5ee" d="M 883.5,261.5 C 882.833,260.167 882.833,260.167 883.5,261.5 Z"/></g>
<g><path style="opacity:1" fill="#cfe6ef" d="M 883.5,261.5 C 884.833,262.167 884.833,262.167 883.5,261.5 Z"/></g>
<g><path style="opacity:1" fill="#d4e9f0" d="M 885.5,264.5 C 884.833,263.167 884.833,263.167 885.5,264.5 Z"/></g>
<g><path style="opacity:1" fill="#cfe6ef" d="M 885.5,264.5 C 886.833,265.167 886.833,265.167 885.5,264.5 Z"/></g>
<g><path style="opacity:1" fill="#d4e9f0" d="M 887.5,267.5 C 886.833,266.167 886.833,266.167 887.5,267.5 Z"/></g>
<g><path style="opacity:1" fill="#d0e7ef" d="M 887.5,267.5 C 888.833,268.167 888.833,268.167 887.5,267.5 Z"/></g>
<g><path style="opacity:1" fill="#d4e9f0" d="M 889.5,270.5 C 888.833,269.167 888.833,269.167 889.5,270.5 Z"/></g>
<g><path style="opacity:1" fill="#d3e8f0" d="M 889.5,270.5 C 890.833,271.167 890.833,271.167 889.5,270.5 Z"/></g>
<g><path style="opacity:1" fill="#d4e9f0" d="M 891.5,273.5 C 890.833,272.167 890.833,272.167 891.5,273.5 Z"/></g>
<g><path style="opacity:1" fill="#d5eaf1" d="M 891.5,273.5 C 892.833,274.167 892.833,274.167 891.5,273.5 Z"/></g>
<g><path style="opacity:1" fill="#d5e9f1" d="M 892.5,275.5 C 893.833,276.167 893.833,276.167 892.5,275.5 Z"/></g>
<g><path style="opacity:1" fill="#daecf2" d="M 894.5,278.5 C 893.833,277.167 893.833,277.167 894.5,278.5 Z"/></g>
<g><path style="opacity:1" fill="#d6eaf1" d="M 894.5,278.5 C 895.833,279.167 895.833,279.167 894.5,278.5 Z"/></g>
<g><path style="opacity:1" fill="#d7ebf1" d="M 895.5,280.5 C 896.833,281.167 896.833,281.167 895.5,280.5 Z"/></g>
<g><path style="opacity:1" fill="#d8ebf2" d="M 897.5,283.5 C 898.833,284.167 898.833,284.167 897.5,283.5 Z"/></g>
<g><path style="opacity:1" fill="#8ec3db" d="M 250.5,289.5 C 247.813,289.336 245.146,289.503 242.5,290C 231.249,296.898 229.582,305.731 237.5,316.5C 228.166,318.417 221.333,315.083 217,306.5C 214.693,293.433 220.026,285.766 233,283.5C 239.032,285.478 244.865,287.478 250.5,289.5 Z"/></g>
<g><path style="opacity:1" fill="#dbecf3" d="M 898.5,285.5 C 899.833,286.167 899.833,286.167 898.5,285.5 Z"/></g>
<g><path style="opacity:1" fill="#96c7dd" d="M 100.5,331.5 C 105.594,333.872 105.761,336.539 101,339.5C 96.5437,337.031 96.377,334.365 100.5,331.5 Z"/></g>
<g><path style="opacity:1" fill="#8cc2da" d="M 187.5,338.5 C 179.031,345.796 178.365,353.796 185.5,362.5C 174.809,368.047 165.975,366.047 159,356.5C 155.33,345.835 158.496,338.002 168.5,333C 176.057,331.075 182.391,332.908 187.5,338.5 Z"/></g>
<g><path style="opacity:1" fill="#2589b8" d="M 185.5,362.5 C 178.365,353.796 179.031,345.796 187.5,338.5C 195.698,334.005 202.864,335.339 209,342.5C 214.462,355.909 210.129,364.243 196,367.5C 191.84,367.002 188.34,365.335 185.5,362.5 Z"/></g>
<g><path style="opacity:1" fill="#509bc3" d="M 127.5,338.5 C 132.354,340.584 132.687,343.251 128.5,346.5C 123.606,344.282 123.272,341.615 127.5,338.5 Z"/></g>
<g><path style="opacity:1" fill="#8dc3da" d="M 109.5,364.5 C 103.203,368.432 100.703,374.099 102,381.5C 103.674,385.021 104.84,388.687 105.5,392.5C 98.4279,394.727 91.2612,396.727 84,398.5C 77.5088,396.668 73.8422,392.334 73,385.5C 66.6675,367.312 73.1675,357.312 92.5,355.5C 99.7908,355.643 105.457,358.643 109.5,364.5 Z"/></g>
<g><path style="opacity:1" fill="#2188b7" d="M 141.5,387.5 C 139.833,389.833 137.833,391.833 135.5,393.5C 128.9,396.927 121.9,399.593 114.5,401.5C 109.837,400.171 106.837,397.171 105.5,392.5C 104.84,388.687 103.674,385.021 102,381.5C 100.703,374.099 103.203,368.432 109.5,364.5C 130.555,357.185 141.222,364.852 141.5,387.5 Z"/></g>
<g><path style="opacity:1" fill="#98c8dd" d="M 141.5,387.5 C 142.833,392.833 140.833,394.833 135.5,393.5C 137.833,391.833 139.833,389.833 141.5,387.5 Z"/></g>
<g><path style="opacity:1" fill="#4c9ac2" d="M 163.5,387.5 C 167.976,387.8 169.31,389.967 167.5,394C 161.339,394.878 160.006,392.711 163.5,387.5 Z"/></g>
<g><path style="opacity:1" fill="#8cc2da" d="M 188.5,402.5 C 180.967,406.511 175.467,412.511 172,420.5C 166.816,443.82 175.649,458.487 198.5,464.5C 184.413,474.961 170.079,475.128 155.5,465C 146.605,457.043 141.605,447.209 140.5,435.5C 145.223,431.861 146.556,427.194 144.5,421.5C 154.521,404.831 169.188,398.497 188.5,402.5 Z"/></g>
<g><path style="opacity:1" fill="#90c4db" d="M 102.5,416.5 C 114.517,417.534 118.017,423.534 113,434.5C 104.984,439.697 98.9835,438.03 95,429.5C 94.4119,423.339 96.9119,419.005 102.5,416.5 Z"/></g>
<g><path style="opacity:1" fill="#2e8cb9" d="M 144.5,421.5 C 146.556,427.194 145.223,431.861 140.5,435.5C 127.267,436.55 123.6,431.05 129.5,419C 135.31,415.263 140.31,416.096 144.5,421.5 Z"/></g>
<g><path style="opacity:1" fill="#1e88b7" d="M 147.5,442.5 C 152.159,442.015 153.492,443.848 151.5,448C 146.728,448.81 145.395,446.977 147.5,442.5 Z"/></g>
<g><path style="opacity:1" fill="#95c7dd" d="M 117.5,444.5 C 120.352,444.352 122.019,445.686 122.5,448.5C 120.167,453.833 117.833,453.833 115.5,448.5C 115.752,446.927 116.418,445.594 117.5,444.5 Z"/></g>
<g><path style="opacity:1" fill="#4a98c1" d="M 239.5,457.5 C 246.399,458.277 247.066,460.61 241.5,464.5C 237.486,462.897 236.82,460.563 239.5,457.5 Z"/></g>
<g><path style="opacity:1" fill="#96c7dd" d="M 215.5,466.5 C 221.555,465.942 222.888,468.109 219.5,473C 218.101,473.595 216.768,473.428 215.5,472.5C 214.306,470.484 214.306,468.484 215.5,466.5 Z"/></g>
<g><path style="opacity:1" fill="#1b87b6" d="M 118.5,575.5 C 109.675,576.891 101.675,575.057 94.5,570C 76.0541,550.923 67.8875,528.09 70,501.5C 72.7603,492.251 78.2603,485.251 86.5,480.5C 100.134,474.81 114.134,473.977 128.5,478C 144.895,481.797 160.228,488.131 174.5,497C 195.628,512.887 196.628,529.887 177.5,548C 163.643,556.43 149.31,564.097 134.5,571C 129.406,573.421 124.072,574.921 118.5,575.5 Z"/></g>
<g><path style="opacity:1" fill="#8bc2da" d="M 86.5,480.5 C 78.2603,485.251 72.7603,492.251 70,501.5C 67.8875,528.09 76.0541,550.923 94.5,570C 101.675,575.057 109.675,576.891 118.5,575.5C 116.031,576.317 113.365,576.817 110.5,577C 98.9325,583.356 86.5991,587.19 73.5,588.5C 62.5617,587.946 53.7284,583.28 47,574.5C 32.2189,554.495 26.2189,532.162 29,507.5C 35.4161,487.777 49.0828,478.444 70,479.5C 75.5158,479.691 81.0158,480.024 86.5,480.5 Z"/></g>
<g><path style="opacity:1" fill="#4a99c1" d="M 181.5,560.5 C 185.487,560.652 186.987,562.652 186,566.5C 184.112,568.922 182.112,568.922 180,566.5C 179.252,564.16 179.752,562.16 181.5,560.5 Z"/></g>
<g><path style="opacity:1" fill="#96c7dd" d="M 146.5,575.5 C 149.617,574.927 151.617,576.094 152.5,579C 151.723,583.642 149.556,584.475 146,581.5C 145.322,579.402 145.489,577.402 146.5,575.5 Z"/></g>
<g><path style="opacity:1" fill="#8dc3da" d="M 196.5,587.5 C 198.213,594.927 201.547,601.594 206.5,607.5C 208.132,611.396 207.798,615.063 205.5,618.5C 197.435,623.947 188.602,627.614 179,629.5C 174.678,629.184 171.345,627.184 169,623.5C 163.522,615.105 161.855,606.105 164,596.5C 172.168,583.832 183.001,580.832 196.5,587.5 Z"/></g>
<g><path style="opacity:1" fill="#288ab8" d="M 148.5,637.5 C 146.167,637.5 143.833,637.5 141.5,637.5C 132.853,635.248 128.186,629.581 127.5,620.5C 128.414,611.085 133.581,605.752 143,604.5C 157.443,608.384 162.109,617.384 157,631.5C 154.823,634.523 151.989,636.523 148.5,637.5 Z"/></g>
<g><path style="opacity:1" fill="#268bb9" d="M 180.5,615.5 C 184.976,615.8 186.31,617.967 184.5,622C 178.738,622.418 177.404,620.251 180.5,615.5 Z"/></g>
<g><path style="opacity:1" fill="#8dc3da" d="M 97.5,621.5 C 110.624,620.784 118.291,626.951 120.5,640C 117.506,655.164 108.839,659.831 94.5,654C 84.5107,645.107 83.5107,635.44 91.5,625C 93.4319,623.541 95.4319,622.375 97.5,621.5 Z"/></g>
<g><path style="opacity:1" fill="#91c5db" d="M 141.5,637.5 C 143.833,637.5 146.167,637.5 148.5,637.5C 148.071,642.466 145.904,643.466 142,640.5C 141.517,639.552 141.351,638.552 141.5,637.5 Z"/></g>
<g><path style="opacity:1" fill="#fcc22f" d="M 201.5,660.5 C 225.896,660.948 245.729,670.615 261,689.5C 267.052,701.263 266.718,712.93 260,724.5C 252.333,736.167 244.667,747.833 237,759.5C 231.027,767.809 223.527,774.309 214.5,779C 202.397,782.854 192.563,779.688 185,769.5C 171.735,744.643 167.401,718.309 172,690.5C 176.051,674.617 185.884,664.617 201.5,660.5 Z"/></g>
<g><path style="opacity:1" fill="#4898c1" d="M 138.5,673.5 C 143.486,673.305 145.152,675.472 143.5,680C 137.741,681.139 136.074,678.972 138.5,673.5 Z"/></g>
<g><path style="opacity:1" fill="#96c7dd" d="M 95.5,695.5 C 98.5319,695.178 100.199,696.511 100.5,699.5C 99.4579,703.77 97.2912,704.437 94,701.5C 93.2516,699.16 93.7516,697.16 95.5,695.5 Z"/></g>
<g><path style="opacity:1" fill="#fcc334" d="M 970.5,720.5 C 979.219,720.007 987.052,722.34 994,727.5C 995.929,732.818 995.929,738.151 994,743.5C 992.53,748.243 990.864,752.909 989,757.5C 985.662,760.318 981.829,761.151 977.5,760C 956.339,756.176 951.173,745.009 962,726.5C 964.322,723.605 967.155,721.605 970.5,720.5 Z"/></g>
<g><path style="opacity:1" fill="#fbc335" d="M 303.5,727.5 C 309.227,732.224 314.227,737.558 318.5,743.5C 318.132,749.367 315.466,753.867 310.5,757C 294.686,760.851 287.186,754.684 288,738.5C 290.832,731.496 295.999,727.829 303.5,727.5 Z"/></g>
<g><path style="opacity:1" fill="#fdda81" d="M 904.5,740.5 C 896.691,740.712 890.191,743.712 885,749.5C 878.035,759.731 874.702,771.064 875,783.5C 872.906,805.998 876.906,827.332 887,847.5C 889.294,850.473 891.794,853.14 894.5,855.5C 879.728,852.903 869.561,844.57 864,830.5C 857.163,812.81 854.33,794.477 855.5,775.5C 858.652,776.041 861.152,775.041 863,772.5C 867.921,763.751 869.921,754.417 869,744.5C 867.624,743.295 866.458,741.962 865.5,740.5C 878.548,731.179 891.548,731.179 904.5,740.5 Z"/></g>
<g><path style="opacity:1" fill="#fbc231" d="M 848.5,735.5 C 854.453,736.151 860.12,737.817 865.5,740.5C 866.458,741.962 867.624,743.295 869,744.5C 869.921,754.417 867.921,763.751 863,772.5C 861.152,775.041 858.652,776.041 855.5,775.5C 848.431,774.644 841.764,772.477 835.5,769C 830.961,763.886 829.627,758.052 831.5,751.5C 836.552,745.481 842.219,740.148 848.5,735.5 Z"/></g>
<g><path style="opacity:1" fill="#fcc22e" d="M 904.5,740.5 C 912.624,740.708 919.958,743.208 926.5,748C 934.833,755 943.167,762 951.5,769C 958.032,775.198 964.199,781.698 970,788.5C 975.926,797.687 976.926,807.354 973,817.5C 963.028,837.473 947.861,851.973 927.5,861C 915.451,864.409 904.451,862.576 894.5,855.5C 891.794,853.14 889.294,850.473 887,847.5C 876.906,827.332 872.906,805.998 875,783.5C 874.702,771.064 878.035,759.731 885,749.5C 890.191,743.712 896.691,740.712 904.5,740.5 Z"/></g>
<g><path style="opacity:1" fill="#fcc437" d="M 1018.5,746.5 C 1027.99,745.819 1032.15,750.153 1031,759.5C 1028.37,764.732 1024.2,766.565 1018.5,765C 1013.27,762.367 1011.44,758.201 1013,752.5C 1014.36,749.977 1016.19,747.977 1018.5,746.5 Z"/></g>
<g><path style="opacity:1" fill="#fbc230" d="M 351.5,771.5 C 364.014,779.589 376.348,787.922 388.5,796.5C 391.488,816.875 383.154,829.875 363.5,835.5C 357.441,835.746 351.441,835.413 345.5,834.5C 326.778,825.868 320.278,811.535 326,791.5C 331.144,780.519 339.644,773.853 351.5,771.5 Z"/></g>
<g><path style="opacity:1" fill="#fecc55" d="M 240.5,773.5 C 246.555,772.942 247.888,775.109 244.5,780C 239.791,780.082 238.458,777.915 240.5,773.5 Z"/></g>
<g><path style="opacity:1" fill="#fddb85" d="M 1007.5,782.5 C 1016.45,781.615 1020.61,785.615 1020,794.5C 1016.94,800.943 1012.11,802.776 1005.5,800C 999.093,793.436 999.76,787.603 1007.5,782.5 Z"/></g>
<g><path style="opacity:1" fill="#fdda82" d="M 212.5,786.5 C 222.966,785.816 231.466,789.482 238,797.5C 238.767,801.594 238.434,805.594 237,809.5C 233.68,815.987 229.513,821.821 224.5,827C 213.867,826.057 205.367,821.224 199,812.5C 197.452,800.593 201.952,791.927 212.5,786.5 Z"/></g>
<g><path style="opacity:1" fill="#fcc334" d="M 278.5,801.5 C 281.159,806.935 280.825,812.268 277.5,817.5C 274.595,824.572 269.761,829.906 263,833.5C 254.281,830.433 246.947,825.433 241,818.5C 238.861,805.95 243.694,797.117 255.5,792C 264.768,791.301 272.435,794.468 278.5,801.5 Z"/></g>
<g><path style="opacity:1" fill="#fdda81" d="M 277.5,817.5 C 280.825,812.268 281.159,806.935 278.5,801.5C 283.317,795.118 289.65,793.118 297.5,795.5C 297.876,792.611 299.376,790.611 302,789.5C 306.717,792.504 306.55,795.337 301.5,798C 309.699,806.63 309.366,814.963 300.5,823C 291.353,827.227 283.686,825.393 277.5,817.5 Z"/></g>
<g><path style="opacity:1" fill="#fdcb52" d="M 985.5,798.5 C 991.555,797.942 992.888,800.109 989.5,805C 984.795,805.106 983.462,802.939 985.5,798.5 Z"/></g>
<g><path style="opacity:1" fill="#fcc437" d="M 736.5,817.5 C 752.86,817.899 758.694,825.899 754,841.5C 747.705,848.914 740.205,850.414 731.5,846C 722.8,837.937 722.466,829.604 730.5,821C 732.727,820.059 734.727,818.892 736.5,817.5 Z"/></g>
<g><path style="opacity:1" fill="#fcc53c" d="M 296.5,829.5 C 307.379,829.204 311.212,834.204 308,844.5C 302.095,850.791 296.428,850.458 291,843.5C 289.268,837.314 291.101,832.647 296.5,829.5 Z"/></g>
<g><path style="opacity:1" fill="#fcc22e" d="M 461.5,829.5 C 468.895,830.854 475.895,833.187 482.5,836.5C 489.227,843.158 492.56,851.325 492.5,861C 490.441,881.19 486.608,901.023 481,920.5C 474.315,936.097 462.482,942.764 445.5,940.5C 424.514,939.899 406.347,932.566 391,918.5C 382.522,906.762 381.355,894.429 387.5,881.5C 393.782,869.044 402.782,858.877 414.5,851C 428.665,840.585 444.332,833.418 461.5,829.5 Z"/></g>
<g><path style="opacity:1" fill="#fdda81" d="M 345.5,834.5 C 351.441,835.413 357.441,835.746 363.5,835.5C 361.708,836.309 359.708,836.809 357.5,837C 375.075,843.915 382.575,856.748 380,875.5C 373.489,895.013 359.989,903.18 339.5,900C 319.778,892.393 312.278,878.227 317,857.5C 317.885,855 319.052,852.667 320.5,850.5C 320.137,849.817 319.804,849.15 319.5,848.5C 323.676,849.98 325.343,848.646 324.5,844.5C 330.895,839.802 337.895,836.468 345.5,834.5 Z"/></g>
<g><path style="opacity:1" fill="#fdde90" d="M 231.5,842.5 C 236.241,842.161 237.574,844.161 235.5,848.5C 232.536,850.121 230.536,849.288 229.5,846C 230.305,844.887 230.972,843.721 231.5,842.5 Z"/></g>
<g><path style="opacity:1" fill="#fcc742" d="M 324.5,844.5 C 325.343,848.646 323.676,849.98 319.5,848.5C 317.933,844.566 319.266,842.733 323.5,843C 324.056,843.383 324.389,843.883 324.5,844.5 Z"/></g>
<g><path style="opacity:1" fill="#fcc22f" d="M 841.5,879.5 C 838.306,897.52 827.472,907.52 809,909.5C 791.915,907.907 781.081,898.907 776.5,882.5C 775.328,859.99 785.995,846.99 808.5,843.5C 829.953,845.952 840.953,857.952 841.5,879.5 Z"/></g>
<g><path style="opacity:1" fill="#fdde91" d="M 291.5,856.5 C 296.512,857.063 297.512,859.229 294.5,863C 289.148,863.175 288.148,861.009 291.5,856.5 Z"/></g>
<g><path style="opacity:1" fill="#fdda83" d="M 735.5,897.5 C 730.97,894.059 725.97,892.059 720.5,891.5C 714.33,879.686 717.33,871.186 729.5,866C 740.518,865.014 746.851,870.014 748.5,881C 748.274,884.012 747.441,886.845 746,889.5C 743.025,893.048 739.525,895.714 735.5,897.5 Z"/></g>
<g><path style="opacity:1" fill="#fdcb52" d="M 868.5,866.5 C 873.493,866.997 874.493,869.164 871.5,873C 868.433,874.164 866.767,873.164 866.5,870C 866.862,868.566 867.528,867.399 868.5,866.5 Z"/></g>
<g><path style="opacity:1" fill="#fcc335" d="M 533.5,876.5 C 546.061,877.039 554.394,883.372 558.5,895.5C 557.964,897.942 557.131,900.275 556,902.5C 552.5,906 549,909.5 545.5,913C 542.492,915.754 538.992,917.587 535,918.5C 530.535,917.05 526.869,914.383 524,910.5C 512.133,895.185 515.3,883.852 533.5,876.5 Z"/></g>
<g><path style="opacity:1" fill="#fecc55" d="M 690.5,878.5 C 695.328,878.385 696.661,880.552 694.5,885C 688.738,885.418 687.404,883.251 690.5,878.5 Z"/></g>
<g><path style="opacity:1" fill="#fecc55" d="M 751.5,878.5 C 756.651,878.654 757.984,880.82 755.5,885C 750.177,885.18 748.843,883.014 751.5,878.5 Z"/></g>
<g><path style="opacity:1" fill="#fcc230" d="M 649.5,941.5 C 635.462,950.079 622.129,949.079 609.5,938.5C 596.027,923.95 595.194,908.617 607,892.5C 624.571,877.402 641.571,878.068 658,894.5C 666.212,907.274 666.546,920.274 659,933.5C 656.234,936.777 653.067,939.443 649.5,941.5 Z"/></g>
<g><path style="opacity:1" fill="#fdda81" d="M 387.5,881.5 C 381.355,894.429 382.522,906.762 391,918.5C 406.347,932.566 424.514,939.899 445.5,940.5C 443.118,972.372 426.118,985.538 394.5,980C 377.791,978.225 363.291,971.725 351,960.5C 340.332,946.123 339.999,931.456 350,916.5C 360.405,902.595 372.905,890.928 387.5,881.5 Z"/></g>
<g><path style="opacity:1" fill="#fdda83" d="M 841.5,879.5 C 843.75,896.501 837.417,909.001 822.5,917C 800.153,923.743 784.987,916.243 777,894.5C 776.501,890.514 776.334,886.514 776.5,882.5C 781.081,898.907 791.915,907.907 809,909.5C 827.472,907.52 838.306,897.52 841.5,879.5 Z"/></g>
<g><path style="opacity:1" fill="#fdca4e" d="M 580.5,886.5 C 585.026,887.369 586.026,889.536 583.5,893C 580.433,894.164 578.767,893.164 578.5,890C 578.862,888.566 579.528,887.399 580.5,886.5 Z"/></g>
<g><path style="opacity:1" fill="#fcc331" d="M 720.5,891.5 C 725.97,892.059 730.97,894.059 735.5,897.5C 737.445,901.606 737.945,905.939 737,910.5C 735.595,916.382 733.595,922.049 731,927.5C 727.15,931.898 722.65,932.565 717.5,929.5C 712.034,928.057 706.868,925.724 702,922.5C 699.792,918.116 698.959,913.449 699.5,908.5C 700.65,898.545 706.15,892.545 716,890.5C 717.533,890.773 719.033,891.106 720.5,891.5 Z"/></g>
<g><path style="opacity:1" fill="#fddb85" d="M 289.5,896.5 C 300.073,896.308 303.906,901.308 301,911.5C 295.036,917.032 289.369,916.698 284,910.5C 282.025,904.177 283.858,899.51 289.5,896.5 Z"/></g>
<g><path style="opacity:1" fill="#fddf92" d="M 313.5,908.5 C 317.788,908.558 319.121,910.558 317.5,914.5C 311.787,915.452 310.454,913.452 313.5,908.5 Z"/></g>
<g><path style="opacity:1" fill="#fddb84" d="M 861.5,909.5 C 866.159,909.015 867.492,910.848 865.5,915C 860.728,915.81 859.395,913.977 861.5,909.5 Z"/></g>
<g><path style="opacity:1" fill="#fdda82" d="M 699.5,908.5 C 698.959,913.449 699.792,918.116 702,922.5C 706.868,925.724 712.034,928.057 717.5,929.5C 715.56,937.486 712.893,945.319 709.5,953C 700.438,954.91 691.771,953.577 683.5,949C 677.481,943.237 675.981,936.403 679,928.5C 682.199,919.123 688.699,914.79 698.5,915.5C 698.198,912.941 698.532,910.607 699.5,908.5 Z"/></g>
<g><path style="opacity:1" fill="#fcc53d" d="M 761.5,916.5 C 772.241,916.97 775.741,922.304 772,932.5C 766.295,938.042 760.962,937.709 756,931.5C 752.816,924.551 754.65,919.551 761.5,916.5 Z"/></g>
<g><path style="opacity:1" fill="#fcc53b" d="M 574.5,941.5 C 565.901,945.532 560.234,943.032 557.5,934C 558.896,925.966 563.563,922.966 571.5,925C 578.083,929.416 579.083,934.916 574.5,941.5 Z"/></g>
<g><path style="opacity:1" fill="#fddf92" d="M 746.5,925.5 C 751.493,925.997 752.493,928.164 749.5,932C 744.148,932.175 743.148,930.009 746.5,925.5 Z"/></g>
<g><path style="opacity:1" fill="#fccb50" d="M 684.5,928.5 C 688.908,928.062 690.575,930.062 689.5,934.5C 684.092,935.433 682.425,933.433 684.5,928.5 Z"/></g>
<g><path style="opacity:1" fill="#fdda81" d="M 609.5,938.5 C 622.129,949.079 635.462,950.079 649.5,941.5C 651.423,944.603 653.59,947.603 656,950.5C 665.226,973.54 658.393,989.706 635.5,999C 613.509,1001.43 600.009,991.93 595,970.5C 594.533,963.501 595.867,956.834 599,950.5C 602.388,946.287 605.888,942.287 609.5,938.5 Z"/></g>
<g><path style="opacity:1" fill="#fcc53c" d="M 497.5,941.5 C 508.918,942.379 512.752,948.045 509,958.5C 501.635,963.411 495.635,962.078 491,954.5C 490.011,948.477 492.178,944.144 497.5,941.5 Z"/></g>
<g><path style="opacity:1" fill="#fdde91" d="M 574.5,941.5 C 579.328,941.385 580.661,943.552 578.5,948C 573.57,948.427 572.237,946.26 574.5,941.5 Z"/></g>
<g><path style="opacity:1" fill="#fddb86" d="M 463.5,949.5 C 473.319,949.15 477.819,953.817 477,963.5C 474.367,968.732 470.201,970.565 464.5,969C 458.703,966.24 456.537,961.74 458,955.5C 459.36,952.977 461.193,950.977 463.5,949.5 Z"/></g>
<g><path style="opacity:1" fill="#fddb86" d="M 560.5,954.5 C 571.361,953.516 575.527,958.183 573,968.5C 566.079,975.567 560.079,974.9 555,966.5C 554.413,961.344 556.246,957.344 560.5,954.5 Z"/></g>
<g><path style="opacity:1" fill="#fddb86" d="M 757.5,963.5 C 768.592,964.065 772.092,969.398 768,979.5C 763,983.5 758,983.5 753,979.5C 748.992,972.536 750.492,967.203 757.5,963.5 Z"/></g>
<g><path style="opacity:1" fill="#fddf91" d="M 789.5,963.5 C 794.493,963.997 795.493,966.164 792.5,970C 789.771,970.801 788.105,969.801 787.5,967C 787.862,965.566 788.528,964.399 789.5,963.5 Z"/></g>
</svg>
